<?xml version="1.0" encoding="UTF-8"?>
<svg version="1.1" xmlns="http://www.w3.org/2000/svg" width="970" height="893">
<path d="M0 0 C19.36889625 15.41244488 27.15062165 37.33971236 30.17529297 61.24194336 C36.54216319 121.40741332 21.42651701 182.71473086 5.7109375 240.34375 C5.50008514 241.13202682 5.28923279 241.92030365 5.07199097 242.73246765 C3.91127412 246.99521836 2.61570688 251.15882309 1.12036133 255.31689453 C-2.28326531 264.03721348 -2.28326531 264.03721348 -2.33886719 273.12988281 C-0.82248937 275.76981056 0.80110201 277.71056864 2.9375 279.875 C3.60322021 280.65270752 4.26894043 281.43041504 4.95483398 282.23168945 C6.29946273 283.79835515 7.66952726 285.34358723 9.06542969 286.86474609 C11.27954492 289.30854365 13.28035869 291.8615899 15.27172852 294.48706055 C17.45910021 297.3686652 19.73378335 300.18026909 22 303 C22.5141748 303.6403418 23.02834961 304.28068359 23.55810547 304.94042969 C29.65141386 312.51450903 35.81282913 320.02463824 42.12158203 327.42041016 C44.92990448 330.71606818 47.66666116 334.05946283 50.375 337.4375 C54.61071442 342.66849158 59.1721798 347.55715604 63.83544922 352.40600586 C68 356.78853417 68 356.78853417 68 359 C68.66 359 69.32 359 70 359 C71.234375 360.2578125 71.234375 360.2578125 72.75 362.125 C78.41114233 368.81214894 84.77099269 374.84874729 91 381 C100.85230046 371.37011586 100.85230046 371.37011586 110.10546875 361.17578125 C112.23162141 358.73399356 114.43746261 356.37930845 116.65405273 354.01977539 C121.86264903 348.47423486 126.86242083 342.8558309 131.62109375 336.9140625 C134.5268772 333.35459706 137.53974005 329.89761741 140.5625 326.4375 C145.52853582 320.73828121 150.34326862 314.95628432 155 309 C155.85893636 307.91111218 156.7183431 306.8225953 157.578125 305.734375 C162.97512762 298.89594873 168.35835296 292.04501317 173.625 285.10546875 C175.20108997 283.04462742 176.80530777 281.00498031 178.4375 278.98828125 C179.55125 277.57095703 179.55125 277.57095703 180.6875 276.125 C181.35136719 275.30257813 182.01523437 274.48015625 182.69921875 273.6328125 C185.89926981 267.15583227 181.4213741 258.39361584 179.4375 251.9375 C161.5971835 192.63006506 146.35893089 129.29742772 151 67 C151.05671875 66.22140625 151.1134375 65.4428125 151.171875 64.640625 C152.88726716 43.27619531 159.20175139 20.33716302 175 5 C182.30249789 -1.01273016 189.84204657 -5.43149219 199 -8 C199.61415771 -8.17362061 200.22831543 -8.34724121 200.86108398 -8.52612305 C212.09657359 -11.01534635 225.68628721 -9.91789892 236 -5 C237.33998047 -4.39865234 237.33998047 -4.39865234 238.70703125 -3.78515625 C257.39478435 5.43841288 269.71186653 21.87926877 279 40 C279.51691406 41.00417969 280.03382813 42.00835937 280.56640625 43.04296875 C287.50184282 57.39000619 288.21319796 72.15804934 288.1875 87.8125 C288.18656342 88.54775909 288.18562683 89.28301819 288.18466187 90.04055786 C288.0638088 133.87092785 276.50597982 175.48934267 258 215 C257.56059082 215.94584961 257.12118164 216.89169922 256.66845703 217.86621094 C251.17731629 229.65481594 245.42440722 241.28196899 239.2850647 252.74502563 C238.63872834 253.95286278 237.99448692 255.1618234 237.35238647 256.37191772 C234.00990562 262.67080769 230.65244504 268.83983266 226.51318359 274.65527344 C222.71098002 280.60760559 222.71098002 280.60760559 222.74414062 287.39868164 C223.27201172 288.55746826 223.79988281 289.71625488 224.34375 290.91015625 C224.62739914 291.55346893 224.91104828 292.19678162 225.20329285 292.85958862 C225.80825085 294.22517669 226.42464779 295.58574697 227.05160522 296.94137573 C227.97493639 298.9455959 228.86027302 300.96209796 229.73364258 302.98852539 C231.55972137 307.21583271 233.4331687 311.42114912 235.3125 315.625 C235.65326569 316.3895752 235.99403137 317.15415039 236.34512329 317.94189453 C244.40886677 336.03213333 252.68106617 354.02598778 261 372 C261.30035156 372.64926453 261.60070312 373.29852905 261.91015625 373.96746826 C265.39404389 381.49831326 268.88868709 389.02411128 272.39208984 396.54589844 C273.78900998 399.5467527 275.18368231 402.54863331 276.5774231 405.55096436 C284.088669 421.72738868 291.73311093 437.83300316 299.49902344 453.88916016 C301.78517038 458.62730009 304.0483292 463.37633098 306.3125 468.125 C311.19947561 478.36580755 316.15200001 488.57438621 321.10977173 498.78103638 C325.27555294 507.35820568 329.41772149 515.94516791 333.5 524.5625 C339.07065382 536.30437414 344.84157022 547.91448444 351.00048828 559.35913086 C354.46123856 565.81147743 357.71684048 572.36107825 360.96484375 578.92236328 C362.05941823 581.11925686 363.16870664 583.30824894 364.28125 585.49609375 C364.6525 586.22900635 365.02375 586.96191895 365.40625 587.71704102 C366.12200029 589.12920994 366.84063913 590.53991945 367.5625 591.94897461 C370 596.77544575 370 596.77544575 370 599 C341.29 599 312.58 599 283 599 C279.205 586.2125 275.41 573.425 271.5 560.25 C270.31986328 556.27614258 269.13972656 552.30228516 267.92382812 548.20800781 C266.95919821 544.95650873 265.99483059 541.70493487 265.03125 538.453125 C264.77458054 537.58704872 264.51791107 536.72097244 264.25346375 535.82865143 C260.66495216 523.71238402 257.14531838 511.57961256 253.69976807 499.42190552 C251.44480801 491.48894088 249.07799101 483.59530221 246.65692139 475.7116394 C243.28142643 464.70327167 240.06342174 453.64914748 236.83660889 442.59646606 C234.96442145 436.18451592 233.08786269 429.77384589 231.2109375 423.36328125 C230.84259796 422.10509079 230.47425842 420.84690033 230.09475708 419.55058289 C227.21316046 409.71372013 224.30551091 399.88488854 221.375 390.0625 C214.51352171 367.06229284 207.76256026 344.02944503 201 321 C198.74418517 323.75599157 196.60651906 326.44185253 194.84375 329.5390625 C194.46774658 330.19140869 194.09174316 330.84375488 193.7043457 331.51586914 C193.30691162 332.21188232 192.90947754 332.90789551 192.5 333.625 C187.93827371 341.49242378 183.14190524 349.18666301 178.26171875 356.859375 C174.68143308 362.48882387 171.15389595 368.15074987 167.625 373.8125 C161.60491331 383.45983862 155.52886559 393.06978383 149.40625 402.65234375 C147.26310328 406.00853559 145.13701766 409.37414916 143.03125 412.75390625 C133.55783744 427.89552401 123.5218816 442.65229617 113.48022461 457.4206543 C112.26261103 459.21516443 111.04524041 461.00983945 109.828125 462.8046875 C109.23922989 463.67037857 108.65033478 464.53606964 108.04359436 465.42799377 C105.27366796 469.5250395 102.57583004 473.64212705 100.02539062 477.87988281 C99.57121765 478.63230255 99.11704468 479.38472229 98.64910889 480.15994263 C97.81282982 481.56075261 96.98939999 482.96934556 96.18145752 484.38668823 C95.07714844 486.24267578 95.07714844 486.24267578 93 489 C91.68 489 90.36 489 89 489 C87.16795338 486.79259117 85.66413937 484.69126843 84.1328125 482.28515625 C83.66551224 481.57578415 83.19821198 480.86641205 82.7167511 480.13554382 C81.17313625 477.78611358 79.64927695 475.42451297 78.125 473.0625 C77.05226857 471.42193139 75.97811346 469.78229287 74.90258789 468.14355469 C72.6852154 464.76285787 70.47428009 461.37807462 68.26708984 457.99072266 C65.22962902 453.33877282 62.15036792 448.71619809 59.05078125 444.10546875 C58.57951813 443.40419357 58.108255 442.7029184 57.62271118 441.98039246 C56.68829441 440.58996518 55.7538767 439.19953854 54.81945801 437.80911255 C46.16186758 424.9093334 37.7849931 411.86683099 29.63330078 398.64013672 C27.05440884 394.47150631 24.43462522 390.3290234 21.8125 386.1875 C21.32539551 385.41688232 20.83829102 384.64626465 20.33642578 383.85229492 C17.94574221 380.07085021 15.55085485 376.29210907 13.15234375 372.515625 C6.57553179 362.14774912 0.10716414 351.71578923 -6.30566406 341.24584961 C-10.47018783 334.45350924 -14.69973227 327.70725204 -19 321 C-23.71382625 335.53858264 -28.15689754 350.14096868 -32.42153931 364.81716919 C-34.24584935 371.09356074 -36.07994729 377.36709344 -37.9140625 383.640625 C-38.20961627 384.65196345 -38.20961627 384.65196345 -38.51114082 385.68373299 C-43.79765704 403.76939873 -49.16161166 421.83212992 -54.52140808 439.89618301 C-56.86152831 447.78338573 -59.20066552 455.67087997 -61.5390625 463.55859375 C-61.78572662 464.39062002 -62.03239075 465.22264629 -62.28652954 466.07988548 C-65.94469332 478.42113318 -69.58429584 490.76757901 -73.1875 503.125 C-78.31368155 520.69747817 -83.48503033 538.2566023 -88.6678772 555.81243896 C-89.63414054 559.08575253 -90.5992461 562.35940392 -91.56332397 565.63336182 C-92.70268801 569.50236498 -93.8444149 573.37066318 -94.98791695 577.23844528 C-95.41428046 578.68198874 -95.8398254 580.12577426 -96.2645092 581.56981277 C-96.8526401 583.56902369 -97.44377452 585.56732308 -98.03564453 587.56542969 C-98.53428513 589.25523956 -98.53428513 589.25523956 -99.04299927 590.97918701 C-99.90357733 593.69563778 -100.94171907 596.35429767 -102 599 C-130.71 599 -159.42 599 -189 599 C-187.64855174 595.62137936 -186.29564651 592.46304354 -184.6796875 589.2265625 C-184.23109375 588.32752197 -183.7825 587.42848145 -183.3203125 586.50219727 C-182.84335938 585.55272217 -182.36640625 584.60324707 -181.875 583.625 C-181.38 582.6362085 -180.885 581.64741699 -180.375 580.62866211 C-177.66044445 575.22812066 -174.88587032 569.87321986 -172 564.5625 C-168.93166991 558.89889976 -166.12458092 553.13685267 -163.375 547.3125 C-157.77208462 535.44659126 -151.8852447 523.72764013 -146 512 C-137.35396989 494.75785272 -128.84823085 477.47651264 -120.7421875 459.97265625 C-120.31544487 459.05164627 -120.31544487 459.05164627 -119.88008118 458.11203003 C-118.50324029 455.13926726 -117.13004703 452.16498545 -115.76342773 449.1875 C-112.97259963 443.13318554 -110.09251932 437.13680025 -107.09375 431.18359375 C-102.98229262 423.02142886 -99.06400024 414.77586186 -95.1875 406.5 C-94.48252016 404.99812032 -93.77752314 403.4962487 -93.07250977 401.99438477 C-87.80652727 390.76577487 -82.60058198 379.51068502 -77.46630859 368.22119141 C-76.12406955 365.27255639 -74.77796887 362.32572691 -73.43058777 359.37944031 C-65.83503508 342.76595774 -58.35320209 326.1063781 -51.01074219 309.37939453 C-50.71474121 308.7058493 -50.41874023 308.03230408 -50.11376953 307.33834839 C-49.54048761 306.0315426 -48.96914238 304.7238852 -48.39990234 303.41531372 C-47.13158706 300.51069588 -45.82382461 297.64119712 -44.42675781 294.79589844 C-43.95850586 293.83973633 -43.49025391 292.88357422 -43.0078125 291.8984375 C-42.59418457 291.08810059 -42.18055664 290.27776367 -41.75439453 289.44287109 C-40.47444039 285.29813934 -41.46457236 282.15403965 -43.25244141 278.30053711 C-43.78015137 277.3853833 -44.30786133 276.47022949 -44.8515625 275.52734375 C-45.74621216 273.95327759 -45.74621216 273.95327759 -46.65893555 272.34741211 C-47.30773682 271.22214111 -47.95653809 270.09687012 -48.625 268.9375 C-50.00535095 266.50372883 -51.37648242 264.06482813 -52.74609375 261.625 C-53.09873795 260.99782578 -53.45138214 260.37065155 -53.81471252 259.72447205 C-86.32589389 201.71287245 -121.54035634 124.42972153 -104.0703125 56.06640625 C-96.72595759 32.1339394 -81.39960711 10.1244622 -59.5 -2.43359375 C-57.03567334 -3.73121576 -54.55507978 -4.89279876 -52 -6 C-51.29101562 -6.32097656 -50.58203125 -6.64195312 -49.8515625 -6.97265625 C-34.06114298 -12.92869168 -13.58558523 -9.5584296 0 0 Z M-60.83984375 28.609375 C-80.12419814 49.95119216 -83.37943833 76.2796793 -82 104 C-77.87157707 146.90203403 -54.06875521 213.41887167 -22 243 C-14.05335264 225.32024968 -7.29579644 207.22975936 -0.72381592 189.00494385 C-0.0587734 187.16280018 0.6107766 185.32228541 1.28076172 183.48193359 C6.6780278 168.55201204 10.47728989 153.67649216 13 138 C13.16371094 137.00403809 13.32742188 136.00807617 13.49609375 134.98193359 C15.72831873 120.80684377 16.30010113 106.69744456 16.375 92.375 C16.38691879 91.17987289 16.38691879 91.17987289 16.39907837 89.96060181 C16.57035565 67.66490614 12.61449679 43.98648186 -3 27 C-10.36184295 19.988721 -20.47258928 15.45499148 -30.64453125 14.9375 C-41.98112321 15.23830509 -52.72123545 20.88859324 -60.83984375 28.609375 Z M186.375 25.375 C170.06413682 41.10991462 165.12162447 65.13002056 164.64672852 87.00927734 C164.2714558 142.97972722 182.56528333 191.94505615 203 243 C205.74103059 240.39723444 207.89700315 237.86120575 209.8828125 234.6484375 C210.40528564 233.80619629 210.92775879 232.96395508 211.46606445 232.09619141 C212.01351318 231.19819824 212.56096191 230.30020508 213.125 229.375 C213.98387817 227.97580322 213.98387817 227.97580322 214.86010742 226.54833984 C219.76720561 218.49717276 224.41750545 210.32411078 228.89746094 202.02880859 C229.91777165 200.15131035 230.9585725 198.28721845 232.0078125 196.42578125 C253.64922319 157.30476962 272.0958389 107.36247464 260.6875 62.3125 C255.30621299 44.24101376 245.8744704 28.35465293 229 19 C214.63210317 12.1772557 198.3915031 15.29237704 186.375 25.375 Z " fill="#C4942F" transform="translate(402,294)"/>
<path d="M0 0 C3.47931588 0.0170739 6.95794157 0.00691123 10.43723392 -0.01033115 C80.59031262 -0.30366225 150.79980386 15.52410668 214.38696289 45.06884766 C216.87927948 46.22334532 219.38042813 47.35268754 221.88989258 48.46923828 C265.50464816 68.08417851 305.69436969 97.16235461 340.49536133 129.76269531 C342.37078521 131.51172737 344.25832532 133.24701495 346.14770508 134.98095703 C357.8275506 145.73248906 357.8275506 145.73248906 362.71411133 151.61376953 C364.41635967 153.59464676 366.24082704 155.38648436 368.11645508 157.20361328 C372.0095699 161.04442138 375.42462292 165.16983887 378.84301758 169.43408203 C380.87759921 171.94251574 382.96256909 174.39320993 385.08032227 176.83129883 C396.58316965 190.1353705 406.77148258 204.58460724 416.24145508 219.39111328 C416.72936523 220.15053223 417.21727539 220.90995117 417.7199707 221.69238281 C474.10533681 309.86912439 498.45459028 411.46085883 482.24145508 600.39111328 C471.74671481 646.87457357 454.8287985 691.96478741 431.24145508 733.39111328 C430.72180176 734.30924805 430.20214844 735.22738281 429.66674805 736.17333984 C421.92193891 749.79294568 413.46184911 762.72738203 404.24145508 775.39111328 C403.81912598 775.97538086 403.39679687 776.55964844 402.96166992 777.16162109 C391.15934358 793.44450677 378.25711118 810.04286938 363.66723633 823.93798828 C362.13218517 825.3536503 362.13218517 825.3536503 361.24145508 827.39111328 C360.58145508 827.39111328 359.92145508 827.39111328 359.24145508 827.39111328 C359.24145508 828.05111328 359.24145508 828.71111328 359.24145508 829.39111328 C357.5979405 830.7528825 355.92622852 832.08073394 354.24145508 833.39111328 C352.55917997 835.04202394 350.89489008 836.71131917 349.24145508 838.39111328 C347.26470412 840.39351441 345.28467564 842.39263978 343.30395508 844.39111328 C342.80444336 844.89900391 342.30493164 845.40689453 341.7902832 845.93017578 C338.43267182 849.30944917 335.0859823 852.56787215 331.24145508 855.39111328 C325.96097679 853.63095385 324.38996657 847.81527619 321.92895508 843.07861328 C321.35338867 842.01964844 320.77782227 840.96068359 320.18481445 839.86962891 C319.65049805 838.84933594 319.11618164 837.82904297 318.56567383 836.77783203 C318.07156006 835.84156982 317.57744629 834.90530762 317.06835938 833.94067383 C316.24145508 831.39111328 316.24145508 831.39111328 316.88061523 829.26855469 C318.34104522 827.25371676 319.85420207 825.64549809 321.69067383 823.96533203 C322.37452148 823.33304688 323.05836914 822.70076172 323.76293945 822.04931641 C324.47772461 821.39898438 325.19250977 820.74865234 325.92895508 820.07861328 C335.62296637 811.23761388 335.62296637 811.23761388 344.55395508 801.64111328 C347.2994363 798.44926207 350.12735123 795.35192501 352.99145508 792.26611328 C358.22932116 786.51473092 363.0248627 780.48224435 367.76000977 774.31396484 C369.29774267 772.31805444 370.85066857 770.33464887 372.40551758 768.35205078 C422.03781327 704.73368976 452.53931003 627.12513907 462.98431396 547.35314941 C463.23193089 545.46378469 463.48679293 543.57537383 463.74194336 541.68701172 C468.95103718 501.44716594 468.32672338 459.48022955 462.24145508 419.39111328 C461.99935532 417.64909411 461.75829746 415.90692946 461.51879883 414.16455078 C460.89608214 409.87596861 460.11255521 405.63574664 459.24145508 401.39111328 C459.04326172 400.42044922 458.84506836 399.44978516 458.64086914 398.44970703 C451.45467506 363.78075329 440.99810958 330.60174997 426.24145508 298.39111328 C425.84490723 297.51438965 425.44835937 296.63766602 425.03979492 295.734375 C415.47945143 274.66874707 403.93766948 254.7135579 391.24145508 235.39111328 C390.4605249 234.20026123 390.4605249 234.20026123 389.66381836 232.98535156 C382.54362566 222.19357271 374.94309099 211.99811965 366.6472168 202.08496094 C364.71932313 199.76197965 362.85595081 197.39011477 360.99145508 195.01611328 C357.68557479 190.86810349 354.1931691 186.92058531 350.61254883 183.00830078 C349.33944539 181.60306305 348.07202107 180.19197581 346.84326172 178.74780273 C341.68219501 172.70256609 336.09888253 167.09663169 330.47167969 161.4909668 C328.8071923 159.83184008 327.14812061 158.16743277 325.48950195 156.50244141 C319.91292644 150.92211476 314.2719358 145.48419556 308.24145508 140.39111328 C307.27723633 139.54548828 306.31301758 138.69986328 305.31958008 137.82861328 C295.67074798 129.5124928 285.5268425 121.89927253 275.24145508 114.39111328 C274.41693848 113.78831543 273.59242188 113.18551758 272.74291992 112.56445312 C260.043239 103.33542979 246.9070388 95.11067621 233.24145508 87.39111328 C232.31510254 86.86743164 231.38875 86.34375 230.43432617 85.80419922 C152.36262349 41.92537554 68.00660097 25.40408922 -119.73535156 47.08447266 C-141.78447642 53.46441745 -163.16756992 61.49125721 -184.00561523 71.11962891 C-186.57008408 72.30406964 -189.14327335 73.46687023 -191.71948242 74.62548828 C-231.20182675 92.60361751 -267.26344593 117.95572677 -299.24682617 147.12548828 C-300.66403921 148.4038453 -302.08800306 149.67507892 -303.53369141 150.92114258 C-308.63257736 155.31707896 -313.44975851 159.93078659 -318.19604492 164.70361328 C-318.91469727 165.41839844 -319.63334961 166.13318359 -320.3737793 166.86962891 C-321.05633789 167.55347656 -321.73889648 168.23732422 -322.44213867 168.94189453 C-323.36337524 169.864823 -323.36337524 169.864823 -324.30322266 170.80639648 C-325.85025418 172.34486595 -325.85025418 172.34486595 -326.75854492 174.39111328 C-327.41854492 174.39111328 -328.07854492 174.39111328 -328.75854492 174.39111328 C-328.99702148 174.95056641 -329.23549805 175.51001953 -329.48120117 176.08642578 C-331.04446007 178.90698465 -332.97435643 180.92711963 -335.19604492 183.26611328 C-340.63304976 189.14903074 -345.55891947 195.33475262 -350.43676758 201.68408203 C-351.64572325 203.24540786 -352.87870058 204.78805698 -354.11401367 206.32861328 C-366.30396561 221.68346062 -377.01940189 238.38640525 -386.75854492 255.39111328 C-387.13076172 256.03016602 -387.50297852 256.66921875 -387.88647461 257.32763672 C-435.84699569 339.83565349 -457.30112656 440.42134657 -434.82495117 602.81689453 C-423.18622219 646.00659262 -406.44206518 688.31697833 -382.75854492 726.39111328 C-382.38665039 726.99036621 -382.01475586 727.58961914 -381.6315918 728.20703125 C-367.38487049 751.02816815 -351.5222407 773.05484644 -333.17260742 792.76611328 C-331.30204714 794.80012058 -329.49974213 796.85934918 -327.70385742 798.95751953 C-323.21467243 804.10301106 -318.40721882 808.92849342 -313.58081055 813.75415039 C-312.01994166 815.31720062 -310.46726604 816.88808693 -308.91479492 818.45947266 C-303.25510315 824.15030934 -297.48467345 829.45575768 -291.19189453 834.44970703 C-287.60775102 837.30925446 -284.18095896 840.34134031 -280.75854492 843.39111328 C-282.02559811 846.75526879 -283.46967686 849.76143117 -285.36010742 852.81689453 C-286.09487305 854.01088867 -286.09487305 854.01088867 -286.84448242 855.22900391 C-287.60631836 856.45393555 -287.60631836 856.45393555 -288.38354492 857.70361328 C-288.89916992 858.53957031 -289.41479492 859.37552734 -289.94604492 860.23681641 C-291.21341496 862.29042527 -292.48433065 864.34174669 -293.75854492 866.39111328 C-310.54958106 853.87411166 -325.45055798 839.78078803 -340.25854492 825.01611328 C-340.77710052 824.50023651 -341.29565613 823.98435974 -341.82992554 823.45285034 C-347.6920004 817.61376628 -353.41395828 811.71463276 -358.75854492 805.39111328 C-359.67096393 804.33482869 -360.58370695 803.27882387 -361.49682617 802.22314453 C-416.34351104 737.88856577 -453.58675791 659.40945968 -475.96166992 504.12158203 C-475.96868423 502.89443985 -475.97569855 501.66729767 -475.98292542 500.40296936 C-476.00034055 496.46150035 -476.00735994 492.52011258 -476.00854492 488.57861328 C-476.00898678 487.9067247 -476.00942863 487.23483612 -476.00988388 486.54258728 C-476.01697193 465.98938876 -475.61866865 445.77512501 -472.75854492 425.39111328 C-472.59225586 424.1276709 -472.4259668 422.86422852 -472.25463867 421.5625 C-464.64519109 364.4705058 -447.3396524 308.36637555 -419.95532227 257.63330078 C-418.82890157 255.52292794 -417.73474313 253.39970007 -416.65307617 251.26611328 C-407.0046564 232.34500876 -395.32491997 214.49303429 -382.75854492 197.39111328 C-382.34378906 196.82473145 -381.9290332 196.25834961 -381.50170898 195.67480469 C-376.42995669 188.77055795 -371.15533493 182.04297074 -365.75854492 175.39111328 C-365.07276367 174.53001953 -364.38698242 173.66892578 -363.68041992 172.78173828 C-358.1581217 165.90866207 -352.28369254 159.44245791 -346.26391602 153.00976562 C-344.34371805 150.94507011 -342.45117891 148.85613552 -340.55810547 146.76660156 C-333.05130989 138.49688197 -325.33777316 130.43560739 -316.82885742 123.18408203 C-314.37580382 121.05964504 -312.01151345 118.84922692 -309.63354492 116.64111328 C-303.87407429 111.3958811 -297.83241657 106.59614134 -291.6550293 101.85498047 C-289.73539732 100.373246 -287.83213298 98.87231731 -285.93041992 97.36767578 C-225.21754885 49.6737392 -152.31012815 18.89427549 -76.38354492 6.01611328 C-75.7111377 5.90027893 -75.03873047 5.78444458 -74.34594727 5.6651001 C-49.66386048 1.48072932 -24.98935721 -0.1234602 0 0 Z " fill="#C4942F" transform="translate(475.758544921875,-0.39111328125)"/>
<path d="M0 0 C3.36255418 0.01610746 6.72390706 0.00002059 10.08642578 -0.01904297 C28.87717693 -0.03752567 47.48126044 1.60813595 65.86376953 5.64111328 C66.83902588 5.8516333 67.81428223 6.06215332 68.8190918 6.27905273 C120.06365908 17.68360567 167.71463521 41.87893104 206.53564453 77.28173828 C208.59529987 79.14786895 210.68765848 80.96181116 212.80126953 82.76611328 C220.73724191 89.69000821 228.12776762 97.29993939 234.86376953 105.39111328 C235.30382324 105.91205566 235.74387695 106.43299805 236.19726562 106.96972656 C274.81476463 152.79717461 299.24411361 207.8942172 306.86376953 267.39111328 C306.98091309 268.29039551 307.09805664 269.18967773 307.21875 270.11621094 C314.41321825 327.8750697 303.42459227 387.34899496 277.86376953 439.39111328 C277.42162109 440.29990234 276.97947266 441.20869141 276.52392578 442.14501953 C265.21634756 465.19637336 250.44768897 485.86432713 233.86376953 505.39111328 C229.85735937 504.05564323 228.9391468 501.60545906 227.05126953 498.07861328 C226.40544922 496.92748047 225.75962891 495.77634766 225.09423828 494.59033203 C223.86376953 491.39111328 223.86376953 491.39111328 224.62109375 489.41064453 C225.82378758 487.45608984 227.08724157 485.67435106 228.51611328 483.87939453 C229.03955322 483.21335205 229.56299316 482.54730957 230.10229492 481.86108398 C230.66295654 481.14911865 231.22361816 480.43715332 231.80126953 479.70361328 C268.22247793 432.60261541 289.18963866 373.92041693 290.86376953 314.39111328 C290.88568359 313.68164551 290.90759766 312.97217773 290.93017578 312.24121094 C292.20820734 264.13397283 281.45604485 215.72126495 258.81396484 173.18994141 C257.85655904 171.37746301 256.93199907 169.5510522 256.01220703 167.71923828 C223.52113061 103.81674738 162.14306991 54.77621992 94.73706055 32.23754883 C65.82485523 22.85420991 37.07677844 18.20331584 6.72119141 18.20581055 C3.7659646 18.20363332 0.8111177 18.18544724 -2.14404297 18.16650391 C-13.95517895 18.13110071 -25.43819276 18.76263488 -37.13623047 20.39111328 C-38.17553711 20.53186279 -39.21484375 20.6726123 -40.28564453 20.81762695 C-108.86863616 30.69750787 -178.47811501 68.78151951 -220.61083984 124.59619141 C-221.79179517 126.19019947 -222.96419872 127.79053251 -224.13623047 129.39111328 C-224.87357422 130.33341797 -225.61091797 131.27572266 -226.37060547 132.24658203 C-253.78690141 167.48916103 -272.33057484 210.89828542 -279.71435547 254.88476562 C-279.99227887 256.53590085 -280.28363454 258.18483974 -280.58935547 259.83105469 C-285.95927476 289.29038565 -285.73268345 322.98926032 -280.13623047 352.39111328 C-279.96462402 353.34775879 -279.79301758 354.3044043 -279.61621094 355.29003906 C-274.17310237 385.28793943 -264.45178571 413.47355181 -250.13623047 440.39111328 C-249.59627441 441.42896973 -249.59627441 441.42896973 -249.04541016 442.48779297 C-238.62150441 462.46619873 -225.43718671 480.38050668 -210.28857422 497.02001953 C-207.1890178 500.43459439 -204.16045262 503.90985435 -201.13623047 507.39111328 C-202.50910389 511.08987419 -204.199785 514.34256088 -206.26123047 517.70361328 C-206.80005859 518.58662109 -207.33888672 519.46962891 -207.89404297 520.37939453 C-208.30396484 521.04326172 -208.71388672 521.70712891 -209.13623047 522.39111328 C-218.78312999 518.30718556 -225.80457835 507.36468491 -232.13623047 499.39111328 C-233.09422169 498.22179555 -234.05394372 497.05389428 -235.01513672 495.88720703 C-241.96989923 487.40112066 -248.27933639 478.6676063 -254.13623047 469.39111328 C-254.50280762 468.81490234 -254.86938477 468.23869141 -255.24707031 467.64501953 C-298.70022734 398.86855565 -312.17543881 315.75119454 -294.58935547 236.46533203 C-289.83111109 216.01084556 -283.36170243 196.25835184 -274.13623047 177.39111328 C-273.82814453 176.75447754 -273.52005859 176.1178418 -273.20263672 175.46191406 C-254.80310988 137.50811829 -229.62188012 101.71314887 -197.13623047 74.39111328 C-196.59353516 73.93462402 -196.05083984 73.47813477 -195.49169922 73.0078125 C-175.43503205 56.22055388 -153.90390576 41.51314167 -130.18652344 30.36083984 C-128.06652726 29.35814577 -125.96366416 28.32375823 -123.85888672 27.28955078 C-103.86742547 17.67925964 -82.23831643 10.58991989 -60.57373047 5.89111328 C-59.56761719 5.67237549 -58.56150391 5.4536377 -57.52490234 5.22827148 C-38.46357846 1.40120004 -19.42074096 -0.11010451 0 0 Z " fill="#C4942F" transform="translate(483.13623046875,183.60888671875)"/>
<path d="M0 0 C0.57186035 0.48227051 1.1437207 0.96454102 1.73291016 1.46142578 C6.37897302 5.55067779 10.4839379 10.01721606 12.4375 16 C12.4375 22.04888976 8.76594401 25.956415 4.72740173 30.03878784 C3.80852928 30.94384567 3.80852928 30.94384567 2.87109375 31.8671875 C2.23639664 32.50238312 1.60169952 33.13757874 0.94776917 33.79202271 C-0.38758927 35.12505086 -1.72661706 36.45441229 -3.0690918 37.78027344 C-5.13058337 39.81801906 -7.17827361 41.86892155 -9.22460938 43.921875 C-10.52524894 45.21694246 -11.82665454 46.51124115 -13.12890625 47.8046875 C-13.74351212 48.42020477 -14.35811798 49.03572205 -14.99134827 49.66989136 C-19.33143787 53.9375 -19.33143787 53.9375 -21.5625 53.9375 C-21.5625 54.5975 -21.5625 55.2575 -21.5625 55.9375 C-22.890625 57.27734375 -22.890625 57.27734375 -24.8125 58.875 C-27.93771928 61.51431946 -30.94622207 64.23406949 -33.90771484 67.05615234 C-43.90248506 76.48945446 -58.17246067 85.9375 -72.5625 85.9375 C-72.76143013 81.50862659 -72.90594922 77.08216695 -73.00195312 72.65014648 C-73.04199646 71.14545367 -73.09645384 69.64106851 -73.16601562 68.13745117 C-73.72144578 55.81588655 -73.72144578 55.81588655 -71.1262207 51.60961914 C-69.05297344 49.73575808 -66.96568119 48.36193716 -64.5625 46.9375 C-62.82407581 45.71352789 -61.08852262 44.48547056 -59.35546875 43.25390625 C-57.490173 41.99784814 -55.62159225 40.7466566 -53.75 39.5 C-51.80003636 38.18469739 -49.85080905 36.86830246 -47.90234375 35.55078125 C-46.51764893 34.61613037 -46.51764893 34.61613037 -45.10498047 33.66259766 C-36.44122351 28.22966728 -36.44122351 28.22966728 -29.5625 20.9375 C-29.08591823 17.50225248 -29.08591823 17.50225248 -30.5625 13.9375 C-42.82568188 3.5331075 -60.40430007 2.23431344 -75.78540039 3.20703125 C-92.5169833 4.61103007 -107.80277454 10.34299264 -121.5625 19.9375 C-122.3565625 20.48277344 -123.150625 21.02804688 -123.96875 21.58984375 C-133.94291648 28.84844093 -139.54720289 38.17073418 -144.88647461 49.07324219 C-150.39484812 60.12861258 -156.61940562 65.06155203 -168.1875 69.25 C-172.12047144 70.05116085 -175.55709654 70.07804047 -179.5625 69.9375 C-183.5683072 57.92007839 -179.27684365 43.664746 -173.875 32.75 C-170.39308725 26.00061969 -166.32654573 19.86089428 -161.5625 13.9375 C-160.78712891 12.9165625 -160.78712891 12.9165625 -159.99609375 11.875 C-142.44606738 -9.94157414 -112.88694445 -21.41870086 -85.8125 -24.375 C-55.15031662 -27.24175357 -23.84376896 -20.14354828 0 0 Z " fill="#C4942F" transform="translate(290.5625,198.0625)"/>
<path d="M0 0 C1.06468506 0.24443848 2.12937012 0.48887695 3.22631836 0.74072266 C15.27221329 3.71141928 15.27221329 3.71141928 18.9765625 9.0859375 C23.40622068 23.01534454 15.71665864 42.62894132 9.625 55.125 C4.31577279 65.01583443 -2.57133893 73.12954388 -10.375 81.125 C-10.95636719 81.76824219 -11.53773438 82.41148437 -12.13671875 83.07421875 C-33.88562057 106.57618067 -72.17375092 122.95323484 -103.70703125 124.33984375 C-113.64614508 124.62181946 -122.7224005 123.51679457 -132.375 121.125 C-130.66746736 114.95483603 -127.59050409 109.53582921 -124.5625 103.9375 C-124.04107422 102.94041016 -123.51964844 101.94332031 -122.98242188 100.91601562 C-122.20801758 99.48225586 -122.20801758 99.48225586 -121.41796875 98.01953125 C-120.95414795 97.15175049 -120.49032715 96.28396973 -120.01245117 95.38989258 C-117.60871364 92.0650867 -115.02644273 90.49162441 -111.02929688 89.60424805 C-110.22556641 89.53246338 -109.42183594 89.46067871 -108.59375 89.38671875 C-107.22295288 89.24520386 -107.22295288 89.24520386 -105.82446289 89.10083008 C-104.85114014 89.00568115 -103.87781738 88.91053223 -102.875 88.8125 C-76.06406922 85.70395545 -48.94851184 75.60506438 -30.375 55.125 C-22.00105577 44.13286337 -22.00105577 44.13286337 -19.375 31.125 C-24.9322141 28.44039183 -30.0939362 27.28293 -36.1875 26.4375 C-37.02603516 26.30794922 -37.86457031 26.17839844 -38.72851562 26.04492188 C-46.74002696 24.88106665 -54.39497811 24.61954906 -62.375 26.125 C-77.25910309 27.31807528 -88.4236614 22.54978382 -100.94140625 15.1484375 C-103.39596733 13.70194986 -105.80417564 12.34172603 -108.375 11.125 C-108.045 9.475 -107.715 7.825 -107.375 6.125 C-103.57200199 5.01697932 -99.76743103 3.91454225 -95.96142578 2.81689453 C-94.04247252 2.26227548 -92.12473645 1.70345048 -90.20703125 1.14453125 C-60.71931905 -7.34669478 -29.8072743 -6.92590304 0 0 Z " fill="#C4942F" transform="translate(529.375,45.875)"/>
<path d="M0 0 C4.14472733 0.44513778 7.41335762 2.9582803 10.8125 5.1875 C11.43833984 5.59750244 12.06417969 6.00750488 12.70898438 6.42993164 C24.44034419 14.2085327 30.37297308 22.23973291 34 36 C38.311791 51.50907772 43.90085366 66.01292196 55 78 C55.43296387 78.4738916 55.86592773 78.9477832 56.31201172 79.43603516 C63.42862896 87.15210293 71.02766168 93.4789326 80 99 C80.67208496 99.41475586 81.34416992 99.82951172 82.03662109 100.25683594 C84.1575503 101.54834334 86.29272044 102.81104929 88.4375 104.0625 C89.09975586 104.45719482 89.76201172 104.85188965 90.44433594 105.25854492 C94.469691 107.53390084 97.3802674 108.44983486 102 108 C101.76077407 90.29723327 101.76077407 90.29723327 98.6484375 72.9609375 C95.24163441 57.40457159 100.73902028 44.00832598 107.4140625 30.3125 C108.72707728 27.57004549 109.91424381 24.83801619 111 22 C114.44210361 23.40972426 115.88835175 24.88097995 117.8046875 28.04296875 C118.55214233 29.27140503 118.55214233 29.27140503 119.31469727 30.5246582 C119.82959717 31.403396 120.34449707 32.28213379 120.875 33.1875 C121.40730225 34.09008545 121.93960449 34.9926709 122.48803711 35.92260742 C139.04657331 64.5633716 137.3210323 91.27487764 129.2182312 122.05548096 C128.82505033 123.55138461 128.4367432 125.04857837 128.05349731 126.54705811 C127.50427937 128.67860403 126.93147973 130.80240827 126.3515625 132.92578125 C126.01979004 134.16755127 125.68801758 135.40932129 125.34619141 136.6887207 C123.81727282 140.44946115 122.08791519 142.40034362 119 145 C113.26098297 147.16166816 107.89176061 144.84939753 102.3125 143.0625 C101.29591309 142.7425708 100.27932617 142.4226416 99.23193359 142.09301758 C62.65682296 130.31163921 30.97667865 109.45373043 12.76782227 74.81933594 C6.93295516 63.1825417 3.20307169 50.80991351 1 38 C0.79503906 36.86820312 0.59007812 35.73640625 0.37890625 34.5703125 C-1.36276358 23.59178683 -1.85050693 12.09518454 -1 1 C-0.67 0.67 -0.34 0.34 0 0 Z " fill="#C4942F" transform="translate(800,398)"/>
<path d="M0 0 C1.34657419 1.07302064 2.70958651 2.12539665 4.07763672 3.17089844 C21.98156736 17.59656034 33.06570959 40.87390398 35.67529297 63.33496094 C37.31551619 92.84308537 29.17674062 121.06647362 10.67529297 144.33496094 C7.86658069 147.36319181 5.11538189 149.69071063 1.30029297 151.39746094 C-5.77340227 151.22903962 -12.58759802 147.44215301 -18.69970703 144.14746094 C-19.43648682 143.75236328 -20.1732666 143.35726562 -20.93237305 142.95019531 C-31.17324563 137.34980562 -39.844596 130.319883 -48.32470703 122.33496094 C-49.19095703 121.53058594 -50.05720703 120.72621094 -50.94970703 119.89746094 C-51.73345703 119.05183594 -52.51720703 118.20621094 -53.32470703 117.33496094 C-53.88158203 116.74585938 -54.43845703 116.15675781 -55.01220703 115.54980469 C-61.28050108 108.38423468 -72.32470703 94.03291595 -72.32470703 84.33496094 C-64.96305155 83.42289743 -57.73816452 83.15992097 -50.32470703 83.33496094 C-49.60283203 83.3053125 -48.88095703 83.27566406 -48.13720703 83.24511719 C-37.47601755 83.39557752 -27.486821 98.07677262 -20.32470703 105.33496094 C-18.28592579 107.40034324 -16.24381871 109.46235571 -14.19970703 111.52246094 C-13.31025391 112.42351562 -12.42080078 113.32457031 -11.50439453 114.25292969 C-9.50455859 116.36770667 -9.50455859 116.36770667 -7.32470703 117.33496094 C-7.04369141 116.60019531 -6.76267578 115.86542969 -6.47314453 115.10839844 C-5.43635723 112.60459236 -4.25529699 110.32998093 -2.94970703 107.95996094 C5.14215568 91.6561782 6.13628143 73.89624714 0.79638672 56.62011719 C0.24144531 54.99396484 0.24144531 54.99396484 -0.32470703 53.33496094 C-0.60185547 52.44679688 -0.87900391 51.55863281 -1.16455078 50.64355469 C-6.63365029 34.94194643 -18.04787796 24.89030364 -31.76220703 16.39746094 C-45.09393458 8.11322085 -52.79111135 -0.04602355 -60.32470703 -13.66503906 C-60.90349609 -14.57769531 -61.48228516 -15.49035156 -62.07861328 -16.43066406 C-63.32470703 -18.66503906 -63.32470703 -18.66503906 -63.32470703 -21.66503906 C-39.1821518 -26.010699 -18.23688844 -14.53466297 0 0 Z " fill="#C4942F" transform="translate(746.32470703125,125.6650390625)"/>
<path d="M0 0 C31.54733637 4.19555369 61.53145049 29.9874663 80.25561523 54.26928711 C97.24153286 76.78391794 107.08260713 100.94646522 105.0546875 129.40625 C104.07719063 135.93041502 102.13736483 142.158218 100.0546875 148.40625 C94.78559584 147.85495671 90.64212631 145.2123787 86.1171875 142.65625 C85.33150391 142.22570312 84.54582031 141.79515625 83.73632812 141.3515625 C72.34290614 134.98268728 72.34290614 134.98268728 70.0546875 130.40625 C69.92634642 128.96561688 69.85257244 127.51988852 69.80859375 126.07421875 C69.77741455 125.19983154 69.74623535 124.32544434 69.71411133 123.42456055 C69.68212646 122.49039307 69.6501416 121.55622559 69.6171875 120.59375 C68.53084046 95.67500803 62.06090192 75.44262558 44.0546875 57.40625 C43.29542969 56.63539063 42.53617187 55.86453125 41.75390625 55.0703125 C33.95026436 47.58596856 24.13539814 40.16390543 13.0546875 39.40625 C12.0646875 39.90125 12.0646875 39.90125 11.0546875 40.40625 C10.43431792 42.97974485 9.92832487 45.48846383 9.4921875 48.09375 C9.36650391 48.80208984 9.24082031 49.51042969 9.11132812 50.24023438 C8.74911361 52.29404756 8.39895442 54.34935518 8.0546875 56.40625 C7.87397705 57.3139917 7.6932666 58.2217334 7.50708008 59.15698242 C6.97894646 62.950253 7.02219099 66.63079423 7.1328125 70.4453125 C7.16009358 72.01169765 7.1860936 73.57810555 7.2109375 75.14453125 C7.25390029 77.58022858 7.30419316 80.01470632 7.37695312 82.44970703 C7.6747178 92.89486663 7.19903095 101.00263105 2.0546875 110.40625 C1.67135254 111.14246582 1.28801758 111.87868164 0.89306641 112.63720703 C-0.11242564 114.50819744 -1.16665999 116.33421165 -2.2578125 118.15625 C-2.61681641 118.76984375 -2.97582031 119.3834375 -3.34570312 120.015625 C-4.2055543 121.48310434 -5.07437521 122.94532294 -5.9453125 124.40625 C-10.19490358 120.55388701 -12.85858674 116.59915908 -15.5078125 111.53125 C-15.89839844 110.78818604 -16.28898437 110.04512207 -16.69140625 109.27954102 C-20.2803418 102.19124276 -22.39546202 95.19330364 -23.9453125 87.40625 C-24.09484375 86.6740625 -24.244375 85.941875 -24.3984375 85.1875 C-27.37129139 66.72451266 -22.57856469 48.21996322 -18.0078125 30.46875 C-17.83886475 29.81093536 -17.66991699 29.15312073 -17.49584961 28.47537231 C-10.04328651 -0.3493317 -10.04328651 -0.3493317 0 0 Z " fill="#C4942F" transform="translate(63.9453125,411.59375)"/>
<path d="M0 0 C1.16089645 0.20231735 1.16089645 0.20231735 2.34524536 0.40872192 C4.5909408 0.80418526 6.83488291 1.20805105 9.078125 1.6171875 C9.74736496 1.73814285 10.41660492 1.85909821 11.10612488 1.98371887 C23.7139842 4.34839364 23.7139842 4.34839364 28.75 10.125 C29.245 10.62 29.245 10.62 29.75 11.125 C31.19031913 38.90654018 26.52424812 65.79510948 12.75 90.125 C12.19570313 91.11886719 11.64140625 92.11273437 11.0703125 93.13671875 C-3.45052725 117.48865335 -28.20328116 133.87475535 -55.25 141.125 C-80.82797818 147.26647942 -80.82797818 147.26647942 -88.25 145.125 C-92.38286354 140.31238917 -91.71739943 134.73907026 -91.54296875 128.7421875 C-91.13977004 123.7640274 -90.13480299 120.6083553 -87.09375 116.6015625 C-84.39284579 114.43855023 -81.33500689 113.69001688 -78.0625 112.75 C-77.35561035 112.53649902 -76.6487207 112.32299805 -75.92041016 112.10302734 C-73.00606105 111.22362557 -70.08594182 110.36568248 -67.16064453 109.5234375 C-53.40624034 105.55677443 -41.29307232 100.54344538 -30.25 91.125 C-29.44433594 90.51785156 -28.63867188 89.91070313 -27.80859375 89.28515625 C-16.4925833 79.73133368 -9.78089543 65.51365702 -5.3125 51.6875 C-5.10069092 51.03740967 -4.88888184 50.38731934 -4.6706543 49.7175293 C-3.37600394 45.42207027 -2.95327694 41.59782532 -3.25 37.125 C-4.40925538 34.46322159 -4.40925538 34.46322159 -7.25 33.125 C-12.3659394 32.3793188 -17.44936553 32.99205001 -22.5390625 33.69140625 C-23.28583252 33.79179199 -24.03260254 33.89217773 -24.80200195 33.99560547 C-26.28254313 34.20315947 -27.7606141 34.42938841 -29.23510742 34.67626953 C-34.19124486 35.39525279 -37.06543315 34.8811508 -41.25 32.125 C-46.66759035 24.19209985 -47.91319488 11.35980234 -46.25 2.125 C-35.67810324 -8.79143541 -13.27115364 -2.32071268 0 0 Z " fill="#C4942F" transform="translate(889.25,562.875)"/>
<path d="M0 0 C4.99017015 19.29532456 4.99017015 19.29532456 1.91796875 28.1015625 C-0.4653686 31.70326579 -3.11925921 33.13841994 -6.9375 34.875 C-7.63480225 35.20959229 -8.33210449 35.54418457 -9.05053711 35.88891602 C-14.61866118 38.50572029 -20.32580061 40.72288254 -26.0625 42.9375 C-44.37841667 50.06820392 -60.52435873 60.19189134 -70 78 C-70.47050781 78.87269531 -70.94101563 79.74539063 -71.42578125 80.64453125 C-74.98754207 87.82058624 -76.56681125 95.15619668 -78 103 C-78.33075429 104.6671804 -78.66306774 106.33405716 -79 108 C-77.80503906 107.96519531 -76.61007813 107.93039062 -75.37890625 107.89453125 C-55.81463052 107.48338749 -55.81463052 107.48338749 -50.5 112.3828125 C-45.19801545 119.42056581 -43 131.39864686 -43 140 C-60.34462202 144.95560629 -90.5646899 143.91317902 -106.90405273 136.08813477 C-110.19709569 133.80341352 -111.00015721 131.99930379 -111.875 128.125 C-111.95056326 126.4178301 -111.98782907 124.70879804 -112 123 C-112.03738281 121.95070313 -112.07476562 120.90140625 -112.11328125 119.8203125 C-112.78265232 87.62004087 -105.65168273 58.73429992 -83 35 C-82.484375 34.40960938 -81.96875 33.81921875 -81.4375 33.2109375 C-62.76441817 12.68999862 -27.66914403 -1.05142747 0 0 Z " fill="#C4942F" transform="translate(171,260)"/>
<path d="M0 0 C8.33500617 4.04229913 17.33148792 11.81274614 22.9375 19.1875 C24.5943164 24.06021727 23.31107093 28.33993206 22.20703125 33.1953125 C22.01533859 34.07540985 21.82364594 34.9555072 21.62614441 35.86227417 C21.01006527 38.68115456 20.38040738 41.49679303 19.75 44.3125 C19.34477383 46.1521393 18.94046839 47.99198166 18.53710938 49.83203125 C17.73514359 53.48657223 16.93032499 57.14046647 16.12353516 60.79394531 C14.96695468 66.04432567 13.82233718 71.29704365 12.69921875 76.5546875 C12.53541214 77.3093631 12.37160553 78.0640387 12.20283508 78.84158325 C8.36627496 96.92889377 8.91501348 113.85923262 18.65625 130.04296875 C24.05108173 137.88095174 30.79513531 143.93174991 38.08984375 149.96875 C43.77714262 154.68211397 46.52409949 158.85172008 47.23461914 166.30371094 C47.31317139 167.49770508 47.39172363 168.69169922 47.47265625 169.921875 C47.55966797 171.21738281 47.64667969 172.51289062 47.73632812 173.84765625 C47.82429728 175.21093243 47.9121869 176.57421375 48 177.9375 C48.09146449 179.31642834 48.18325775 180.69533491 48.27539062 182.07421875 C48.4993311 185.44511226 48.7199043 188.81619196 48.9375 192.1875 C32.59320655 190.53727059 19.43372237 181.49648748 7.9375 170.1875 C7.18726563 169.45015625 6.43703125 168.7128125 5.6640625 167.953125 C-16.69363158 144.57560628 -23.69389407 115.09630032 -23.328125 83.74609375 C-22.65285372 57.65877517 -17.32354804 25.41119432 -7.0625 1.1875 C-4.15206665 -0.75428431 -3.49575282 -0.92744462 0 0 Z " fill="#C4942F" transform="translate(124.0625,591.8125)"/>
<path d="M0 0 C4.14842824 0.65257662 8.18285736 1.5852123 12.25 2.625 C13.88569946 3.03322998 13.88569946 3.03322998 15.55444336 3.44970703 C51.01085244 12.54916266 82.32613564 32.19943345 101.44140625 64.03125 C105.79836105 71.46999314 109.66013602 78.93314707 112.5625 87.0625 C112.80170166 87.72773682 113.04090332 88.39297363 113.28735352 89.07836914 C114.93203938 93.99892053 115.59348075 98.83757844 116 104 C112.54327799 104.51156946 109.08442448 105.00706532 105.625 105.5 C104.65949219 105.64308594 103.69398438 105.78617187 102.69921875 105.93359375 C96.41952727 106.81865094 90.33972202 107.18794674 84 107 C83.62875 105.824375 83.2575 104.64875 82.875 103.4375 C74.77842059 79.29981022 63.24486879 58.1733644 39.82421875 45.8203125 C30.37139867 41.14472407 20.30093979 38.11554522 10 36 C9.99589111 36.94319092 9.99178223 37.88638184 9.98754883 38.8581543 C9.96051141 42.37193676 9.91137159 45.88398682 9.84741211 49.3972168 C9.82427549 50.91501168 9.80984652 52.43296613 9.80444336 53.95092773 C9.79512078 56.1388643 9.75406849 58.32430687 9.70703125 60.51171875 C9.68346558 62.48338013 9.68346558 62.48338013 9.65942383 64.49487305 C8.8439243 68.82961084 7.41332659 70.29264004 4 73 C0.94921875 74.07421875 0.94921875 74.07421875 -2.3125 74.6875 C-3.45203125 74.914375 -4.5915625 75.14125 -5.765625 75.375 C-7.36664062 75.684375 -7.36664062 75.684375 -9 76 C-10.52401524 76.38340006 -12.04558503 76.77690648 -13.5625 77.1875 C-17 78 -17 78 -21 78 C-21.48212214 76.43840941 -21.96055873 74.87568072 -22.4375 73.3125 C-22.70433594 72.44238281 -22.97117187 71.57226562 -23.24609375 70.67578125 C-28.91111832 50.56934691 -24.69784546 22.79856923 -16 4 C-11.46417233 -1.57687939 -6.70322638 -0.61389951 0 0 Z " fill="#C4942F" transform="translate(583,56)"/>
<path d="M0 0 C12.82190602 1.72527176 23.3085185 7.71123293 33 16 C33.53367187 16.45149414 34.06734375 16.90298828 34.6171875 17.36816406 C56.24744806 35.83766472 71.02005488 61.43264147 74 90 C74.68733256 106.56769144 74.31254041 122.95924756 71.60400391 139.33251953 C71.13920074 142.15478032 70.6895661 144.97776838 70.25146484 147.80419922 C69.54384657 152.36369136 68.8157279 156.91953991 68.07473755 161.47372437 C67.77838512 163.30313807 67.48618861 165.13323057 67.19845581 166.96401978 C65.61917875 176.93484329 64.03544186 186.07920205 59 195 C53.9540225 191.33919279 49.09474119 187.49595193 44.3125 183.5 C43.76634033 183.04971436 43.22018066 182.59942871 42.6574707 182.13549805 C41.06605709 180.79412572 39.5254013 179.41584209 38 178 C37.50290527 177.55011719 37.00581055 177.10023438 36.49365234 176.63671875 C33.79952699 173.88478769 32.65381323 171.65514531 32.5078125 167.890625 C32.8536147 162.02915512 34.39295867 156.40932993 35.875 150.75 C43.599088 120.85149671 45.06664238 89.3771476 29 62 C26.57260223 58.40282769 23.96293225 55.16644678 21 52 C20.41347656 51.36964844 19.82695313 50.73929688 19.22265625 50.08984375 C15.65195002 46.40578176 11.83332792 43.13332909 7.796875 39.96875 C3.20254918 34.93496693 2.45202066 28.89350839 1.875 22.375 C1.79717285 21.59463379 1.7193457 20.81426758 1.63916016 20.01025391 C0.98874688 13.34931287 0.44831218 6.67749201 0 0 Z " fill="#C4942F" transform="translate(783,175)"/>
<path d="M0 0 C2.84910652 2.24653686 3.79529324 4.37696786 4.25292969 8.00537109 C4.43585334 10.46109472 4.59868917 12.91712166 4.75 15.375 C4.81832031 16.22578125 4.88664063 17.0765625 4.95703125 17.953125 C5.18756666 21.74809252 5.23523038 24.40251484 3.828125 27.9765625 C-0.06160797 32.28186523 -5.06555655 32.39175083 -10.5625 32.9375 C-17.56049147 33.7112853 -24.20922179 35.1193323 -31 37 C-23.20007286 54.18211335 -23.20007286 54.18211335 -13 70 C-12.36578125 70.84304688 -11.7315625 71.68609375 -11.078125 72.5546875 C-3.04130719 82.87396156 5.55877199 92.0933181 16 100 C16.78068848 100.59312988 16.78068848 100.59312988 17.57714844 101.19824219 C25.22803615 106.96499019 33.16733876 112.03318796 41.49072266 116.77709961 C46.81874744 119.81874744 46.81874744 119.81874744 49 122 C49.45546471 127.28989728 48.48592304 131.25551611 46.625 136.1875 C46.18414063 137.37730469 45.74328125 138.56710937 45.2890625 139.79296875 C44.86367188 140.85128906 44.43828125 141.90960938 44 143 C43.71898437 143.77988281 43.43796875 144.55976563 43.1484375 145.36328125 C42 147 42 147 39.640625 147.8046875 C23.38890425 149.00673785 3.00134127 132.3007532 -8.76318359 122.53662109 C-12.29683371 119.48051944 -15.65686893 116.26376891 -19 113 C-20.17949219 111.91332031 -20.17949219 111.91332031 -21.3828125 110.8046875 C-38.84465134 94.31633096 -48.35908733 71.91656236 -57 50 C-57.36996094 49.07525879 -57.73992188 48.15051758 -58.12109375 47.19775391 C-59.14019506 44.6383351 -60.13743526 42.07172963 -61.125 39.5 C-61.42035645 38.75387451 -61.71571289 38.00774902 -62.02001953 37.23901367 C-64.14459995 31.5438678 -65.31818118 26.05263009 -62.8125 20.25 C-59.08054356 15.61722649 -55.1102078 13.41014923 -49.51171875 11.5625 C-48.89575333 11.35668304 -48.2797879 11.15086609 -47.64515686 10.93881226 C-45.66292055 10.28076259 -43.67585847 9.63929061 -41.6875 9 C-40.32126515 8.5542725 -38.95505428 8.10847152 -37.58886719 7.66259766 C-8.21815715 -1.85787259 -8.21815715 -1.85787259 0 0 Z " fill="#C4942F" transform="translate(817,272)"/>
<path d="M0 0 C39.617614 14.42300233 70.51757464 39.71083567 88.71142578 78.05859375 C92.52678626 86.76785161 95.28301103 95.90011456 98 105 C98.391875 106.258125 98.78375 107.51625 99.1875 108.8125 C100.48999348 113.92228212 100.67847591 118.77349876 100 124 C96.48553597 129.8992789 89.20793542 131.78535191 83 134 C81.28103516 134.61875 81.28103516 134.61875 79.52734375 135.25 C65.1149322 140.07734861 47.24045742 144 32 144 C32.79484745 120.37384479 32.79484745 120.37384479 38.375 114.5 C44.12539903 111.2140577 49.5281773 110.39684684 56.0390625 109.5625 C59.17241458 109.16648055 59.17241458 109.16648055 62 107 C64.19578303 97.8212313 58.7931506 89.11968515 54.3125 81.5625 C42.16627152 62.46916667 26.0310864 49.98675867 6.5 39.25 C-6.34840919 32.16554906 -6.34840919 32.16554906 -9.5 26.125 C-10.91739627 17.26627332 -7.47262117 10.50999824 -3 3 C-1.3046875 1.14453125 -1.3046875 1.14453125 0 0 Z " fill="#C4942F" transform="translate(108,540)"/>
<path d="M0 0 C9.31712755 1.22329193 16.95518324 9.24931644 22.80859375 16.12890625 C38.92299206 37.24135323 44.22703992 62.70984411 44.25 88.875 C44.25067474 89.56630005 44.25134949 90.2576001 44.25204468 90.96984863 C44.23509407 101.91899193 43.54117638 112.32755942 41 123 C40.83371094 123.75071777 40.66742187 124.50143555 40.49609375 125.27490234 C35.2198155 148.90578929 25.18610423 171.59737792 8 189 C6.68660262 189.70513087 5.35587497 190.38046364 4 191 C1.78625945 188.19171977 -0.41994593 185.37760425 -2.625 182.5625 C-3.24246094 181.77939453 -3.85992188 180.99628906 -4.49609375 180.18945312 C-6.35580685 177.81097795 -8.18433517 175.41224042 -10 173 C-10.60553711 172.20964355 -11.21107422 171.41928711 -11.83496094 170.60498047 C-15.9634059 164.91374359 -15.9634059 164.91374359 -16.12890625 160.78125 C-14.80466325 157.51875513 -13.16921202 155.22552137 -10.9375 152.5 C-0.64216007 139.38370804 7.46664196 123.6477814 10 107 C10.16435547 106.02160156 10.16435547 106.02160156 10.33203125 105.0234375 C11.8552435 94.1781663 11.4485362 83.2712233 9.6875 72.5 C9.56987305 71.77111572 9.45224609 71.04223145 9.33105469 70.29125977 C8.18489098 63.88256308 6.50880715 57.8016813 2.5 52.5625 C-2.27896358 46.204564 -3.51613892 39.05044583 -3.375 31.25 C-3.36629883 30.05346802 -3.36629883 30.05346802 -3.35742188 28.83276367 C-3.15446924 19.11828569 -1.599162 9.56641551 0 0 Z " fill="#C4942F" transform="translate(863,289)"/>
<path d="M0 0 C7.79045325 2.70746777 12.8660108 13.38656136 16.69921875 20.26171875 C17.93359375 23.01953125 17.93359375 23.01953125 18.24609375 26.83203125 C15.22035751 34.18024782 8.64206606 39.31105894 3.12109375 44.83203125 C-12.0125073 62.74208108 -17.2603565 90.49732716 -15.8515625 113.34765625 C-14.93723572 124.13500094 -11.84110235 133.56936299 -8.07421875 143.68359375 C-4.10629143 155.28505743 -5.45342593 166.80335503 -10.06640625 178.01953125 C-11.02899466 179.70808132 -12.0182481 181.38272268 -13.06640625 183.01953125 C-25.86506072 177.42931435 -36.8326126 162.50034049 -41.92382812 149.89697266 C-45.18494552 141.16614045 -47.97191998 132.30134339 -49.06640625 123.01953125 C-49.17597656 122.10558594 -49.28554688 121.19164062 -49.3984375 120.25 C-53.19913299 82.39507295 -43.39361661 46.79783873 -19.5546875 17.03515625 C-5.52752745 0.03520718 -5.52752745 0.03520718 0 0 Z " fill="#C4942F" transform="translate(107.06640625,478.98046875)"/>
<path d="M0 0 C17.00429185 6.00858369 17.00429185 6.00858369 20 12 C21.19313789 30.32479699 6.15678463 53.23921734 -5 67 C-6.00740234 68.32451172 -6.00740234 68.32451172 -7.03515625 69.67578125 C-20.4308898 86.86413628 -37.63966353 98.4345257 -57 108 C-57.75796875 108.38285156 -58.5159375 108.76570313 -59.296875 109.16015625 C-64.94603248 111.66959604 -70.96655424 111.94845449 -77 111 C-89.40572727 106.03381405 -96.09613216 92.45436429 -101.20166016 80.8984375 C-104.44195962 73.19306483 -105.27245246 65.77713422 -105.4375 57.5 C-105.46005859 56.72156738 -105.48261719 55.94313477 -105.50585938 55.14111328 C-105.49022162 51.56241348 -105.32721143 49.43906078 -103.16015625 46.53125 C-98.28173815 43.07313084 -92.73951288 43.46216077 -87 44 C-80.24704465 45.74337572 -75.78682133 49.1684929 -72 55 C-70.53507654 58.56905503 -69.56024794 62.19906357 -68.625 65.9375 C-68.23634766 67.3925293 -68.23634766 67.3925293 -67.83984375 68.87695312 C-67.20929349 71.24735501 -66.59661966 73.62087519 -66 76 C-57.50357062 70.13574975 -49.48041575 64.15232734 -42 57 C-41.32710938 56.39027344 -40.65421875 55.78054687 -39.9609375 55.15234375 C-26.06636677 42.11580428 -16.320064 24.13681399 -11.0703125 5.9765625 C-8.85923446 -0.17249396 -6.44184716 -0.62187822 0 0 Z " fill="#C4942F" transform="translate(394,96)"/>
<path d="M0 0 C0.70314331 0.00215515 1.40628662 0.0043103 2.1307373 0.00653076 C14.16457268 0.06543003 25.74888134 0.96854423 37.5625 3.3125 C38.69800293 3.53244629 39.83350586 3.75239258 41.00341797 3.97900391 C44.75682314 4.71526586 48.50420187 5.47599828 52.25 6.25 C53.42079102 6.49057129 54.59158203 6.73114258 55.79785156 6.97900391 C73.95952431 10.90803647 73.95952431 10.90803647 77.5625 16.3125 C78.39692948 23.22634429 76.71794908 27.75533245 72.5625 33.3125 C67.31793315 38.77133903 63.44492808 41.44294725 55.75 41.75 C46.99088182 41.72274133 39.11598961 39.19383818 30.7578125 36.78125 C6.57998591 29.82634031 -19.29133413 32.21670496 -41.38525391 44.38525391 C-48.3968364 48.48972783 -54.86800993 53.20200513 -60.9609375 58.5859375 C-67.66638986 63.26071659 -75.14113784 64.0683745 -83.0625 65 C-84.073125 65.12955078 -85.08375 65.25910156 -86.125 65.39257812 C-90.9205596 65.98730304 -95.59491583 66.48603971 -100.4375 66.3125 C-98.95201504 53.1553475 -92.14610513 42.00235641 -83.4375 32.3125 C-82.93089844 31.71308594 -82.42429688 31.11367187 -81.90234375 30.49609375 C-62.0181738 8.57773762 -28.38865167 -0.15736876 0 0 Z " fill="#C4942F" transform="translate(289.4375,102.6875)"/>
<path d="M0 0 C3.38992412 2.66612128 6.78210645 5.2621077 10.33886719 7.70263672 C11.80646484 8.79511719 11.80646484 8.79511719 13.30371094 9.90966797 C13.30371094 10.56966797 13.30371094 11.22966797 13.30371094 11.90966797 C7.17871094 14.97216797 7.17871094 14.97216797 5.27783203 15.91381836 C2.00361415 17.53949896 -1.24655859 19.19356773 -4.46191406 20.93310547 C-16.26401166 27.2583713 -16.26401166 27.2583713 -22.69628906 25.90966797 C-30.39128581 22.93946803 -37.1266993 18.41184997 -43.91064453 13.8059082 C-62.63326346 1.09463664 -82.20887523 -10.0246584 -105.72363281 -6.65673828 C-114.58940845 -4.7810617 -122.74168539 -0.67001284 -130.07519531 4.62841797 C-137.14630369 8.08493592 -145.78644 5.06710175 -153.07128906 3.47216797 C-154.163125 3.24207031 -155.25496094 3.01197266 -156.37988281 2.77490234 C-164.39038403 1.06262048 -164.39038403 1.06262048 -166.69628906 -0.09033203 C-160.17894662 -14.763256 -145.6822993 -27.68660789 -131.01269531 -33.56689453 C-81.48345595 -51.18690889 -38.45633979 -30.26794924 0 0 Z " fill="#C4942F" transform="translate(472.6962890625,95.09033203125)"/>
<path d="M0 0 C0.55204102 0.39638672 1.10408203 0.79277344 1.67285156 1.20117188 C29.16817326 21.27415715 29.16817326 21.27415715 35.875 34.125 C35.83036951 39.19502383 32.56562283 43.62792749 30.0625 47.875 C29.62357422 48.65488281 29.18464844 49.43476562 28.73242188 50.23828125 C28.29865234 50.97949219 27.86488281 51.72070312 27.41796875 52.484375 C26.8305188 53.49709473 26.8305188 53.49709473 26.23120117 54.53027344 C24.53972 56.51924824 23.44788012 56.86748945 20.875 57.125 C13.77986742 53.19182868 8.22984576 46.51532425 2.98632812 40.43115234 C0.37985235 37.46676981 -1.23680633 35.83274444 -5.125 35.125 C-16.90851018 53.06347082 -20.53171274 72.14990323 -16.54858398 93.17822266 C-15.40538479 98.60368543 -13.5588944 103.54389896 -11.2109375 108.57421875 C-10.06965289 111.25500597 -9.37381996 113.21523949 -9.125 116.125 C-10.38842773 119.0793457 -10.38842773 119.0793457 -12.30859375 122.30078125 C-12.64294937 122.87080368 -12.97730499 123.44082611 -13.3217926 124.02812195 C-14.38856601 125.83962718 -15.47503228 127.63835764 -16.5625 129.4375 C-17.29104687 130.66652831 -18.01827615 131.89633869 -18.74414062 133.12695312 C-20.52258418 136.13551376 -22.31888082 139.13295226 -24.125 142.125 C-25.115 142.125 -26.105 142.125 -27.125 142.125 C-36.50662629 131.81708656 -43.24125732 117.35032071 -47.125 104.125 C-47.4446875 103.05894531 -47.764375 101.99289062 -48.09375 100.89453125 C-52.70009736 82.36251342 -51.77442233 61.30806267 -46.125 43.125 C-45.76277344 41.91199219 -45.40054688 40.69898438 -45.02734375 39.44921875 C-39.8117394 23.55488548 -30.91367654 6.12854965 -17.125 -3.875 C-10.80122334 -6.41292367 -5.16017153 -3.70846087 0 0 Z " fill="#C4942F" transform="translate(227.125,685.875)"/>
<path d="M0 0 C3.25207092 1.41738489 5.31361067 3.12526412 7.75 5.6875 C10.44250961 8.46008425 13.17566289 11.06516858 16.125 13.5625 C18.67075073 15.79066203 21.1943671 18.02014494 23.5625 20.4375 C24.05878906 20.93121094 24.55507813 21.42492187 25.06640625 21.93359375 C27.47020877 27.2541441 24.36012115 35.14509159 23 40.625 C15.37614354 71.67287919 22.8665817 99.57220852 33.88916016 128.67260742 C40.57292203 146.42469309 40.57292203 146.42469309 40 151 C37.97996292 154.30006058 35.25343149 155.99187915 32 158 C31.15985352 158.53681396 31.15985352 158.53681396 30.30273438 159.08447266 C28.46665505 160.24952514 26.61497965 161.38183957 24.75 162.5 C24.14800781 162.86311279 23.54601562 163.22622559 22.92578125 163.6003418 C18.57604683 166.06402072 18.57604683 166.06402072 15.9855957 165.77612305 C9.59279923 163.27732802 6.01586098 154.94402076 3.0625 149.1875 C2.63428955 148.35782715 2.2060791 147.5281543 1.76489258 146.67333984 C-5.83305875 131.66521654 -10.70294223 116.48188281 -14 100 C-14.2475 98.77410156 -14.495 97.54820312 -14.75 96.28515625 C-19.9876303 64.53202257 -15.39470897 28.43107955 0 0 Z " fill="#C4942F" transform="translate(817,496)"/>
<path d="M0 0 C4.31473378 4.36501319 6.37562502 8.64672051 8.359375 14.39453125 C8.65181091 15.21572952 8.94424683 16.0369278 9.24554443 16.88301086 C12.57145115 26.37387116 15.49150909 35.99339623 18.34472656 45.63500977 C19.25313851 48.69808275 20.17681081 51.75627879 21.1015625 54.81445312 C29.64817629 83.34820551 29.64817629 83.34820551 29.375 97.8125 C29.36412354 98.64668457 29.35324707 99.48086914 29.34204102 100.34033203 C28.86205696 119.57954195 24.52982426 140.13660356 15 157 C12.25 158.5 12.25 158.5 10 159 C9.64550781 158.58492187 9.29101562 158.16984375 8.92578125 157.7421875 C4.20689388 152.2806181 -0.69253973 147.00034997 -5.64331055 141.74951172 C-6.19156494 141.16443848 -6.73981934 140.57936523 -7.3046875 139.9765625 C-7.79952637 139.45143066 -8.29436523 138.92629883 -8.80419922 138.38525391 C-11.73355581 134.99179345 -11.30237431 131.2473043 -11 127 C-10.68509346 125.43368227 -10.34999702 123.87135196 -10 122.3125 C-4.20689426 91.48641178 -16.27062034 58.18100768 -25.4609375 29.00048828 C-26.82684912 23.93152097 -26.37245884 19.48337953 -24.09765625 14.75390625 C-19.40742209 7.25954633 -9.299644 -2.14607169 0 0 Z " fill="#C4942F" transform="translate(143,310)"/>
<path d="M0 0 C3.47655371 2.54293914 5.80225481 5.56956399 8.3828125 8.98828125 C9.12337891 9.94444336 9.12337891 9.94444336 9.87890625 10.91992188 C14.870872 17.40947735 14.870872 17.40947735 14.3828125 22.36328125 C14.31578125 23.14574219 14.24875 23.92820313 14.1796875 24.734375 C13.22413421 28.56341354 11.05387817 29.66741306 7.76171875 31.6875 C-28.42372855 51.6065695 -72.53553725 61.96380464 -113.3671875 51.92578125 C-114.10678711 51.74885742 -114.84638672 51.57193359 -115.60839844 51.38964844 C-142.46799057 44.82497818 -142.46799057 44.82497818 -148.3671875 38.92578125 C-148.192364 36.1875777 -147.590239 35.13987237 -145.60473633 33.23413086 C-144.85216553 32.68764893 -144.09959473 32.14116699 -143.32421875 31.578125 C-142.49728516 30.97291016 -141.67035156 30.36769531 -140.81835938 29.74414062 C-139.94759766 29.12345703 -139.07683594 28.50277344 -138.1796875 27.86328125 C-137.32826172 27.23873047 -136.47683594 26.61417969 -135.59960938 25.97070312 C-124.35092497 17.81910429 -124.35092497 17.81910429 -118.953125 18.109375 C-115.25680768 18.9509113 -111.63523065 19.94043688 -107.9921875 20.98828125 C-76.52634587 29.21080636 -42.45682799 13.70532543 -14.390625 0.81445312 C-9.58108816 -1.29784346 -4.94526618 -2.24413894 0 0 Z " fill="#C4942F" transform="translate(638.3671875,120.07421875)"/>
<path d="M0 0 C6.08759679 20.02865814 9.43383187 35.171329 2 55.5 C-4.12237002 73.73485088 -4.12602661 94.09229224 -5.5625 113.125 C-5.87396347 117.23919541 -6.18766029 121.35318187 -6.51023865 125.46652222 C-6.70859612 128.00377779 -6.90153784 130.54146493 -7.08802795 133.07962036 C-8.4791188 150.89337402 -8.4791188 150.89337402 -11.734375 155.40234375 C-12.39953125 155.90894531 -13.0646875 156.41554688 -13.75 156.9375 C-14.4615625 157.48535156 -15.173125 158.03320312 -15.90625 158.59765625 C-22.50195329 163.01530081 -28.16008775 164.62912876 -36 164 C-38.60158472 163.17844693 -39.5835456 162.62244259 -41.08984375 160.37109375 C-42.3192623 157.16827375 -42.25103227 154.19023424 -42.1875 150.8125 C-42.17887939 150.0498584 -42.17025879 149.2872168 -42.16137695 148.50146484 C-42.12098158 145.66728213 -42.05989151 142.83383721 -42 140 C-41.98066406 138.80455566 -41.96132813 137.60911133 -41.94140625 136.37744141 C-40.34602855 42.19150352 -40.34602855 42.19150352 -12 9 C-11.55785156 8.43925781 -11.11570312 7.87851562 -10.66015625 7.30078125 C-4.84427966 0 -4.84427966 0 0 0 Z " fill="#C4942F" transform="translate(798,597)"/>
<path d="M0 0 C1.61371549 1.61371549 1.12734515 3.35963772 1.12939453 5.59106445 C1.13250137 6.57719223 1.13560822 7.56332001 1.1388092 8.57933044 C1.13683029 9.66303421 1.13485138 10.74673798 1.1328125 11.86328125 C1.13417709 12.98593887 1.13554169 14.1085965 1.13694763 15.26527405 C1.13898684 18.94771197 1.13263103 22.63007018 1.125 26.3125 C1.12378143 27.55984924 1.12256287 28.80719849 1.12130737 30.09234619 C1.10354298 45.52400947 1.00813829 60.94924147 0.5625 76.375 C0.5429425 77.06606842 0.52338501 77.75713684 0.50323486 78.46914673 C0.28270666 85.98603072 -0.05166915 93.49563219 -0.46875 101.00390625 C-0.50532211 101.69120819 -0.54189423 102.37851013 -0.57957458 103.0866394 C-1.92017652 125.92988455 -11.6683359 141.73952267 -27.3515625 157.71484375 C-29.88635432 159.90194289 -31.83527942 161.0003139 -35 162 C-36.30352292 158.85895362 -37.59055489 155.71139052 -38.875 152.5625 C-39.23980469 151.68400391 -39.60460937 150.80550781 -39.98046875 149.90039062 C-43.93856701 140.14907581 -47.3482218 130.08893694 -43.10888672 119.84716797 C-41.59388294 116.55383019 -39.99529245 113.30620636 -38.37963867 110.0612793 C-32.00112303 97.15436122 -30.57740909 84.37152824 -31.3125 70.125 C-31.35882568 69.12976318 -31.40515137 68.13452637 -31.45288086 67.10913086 C-31.78596521 60.56643959 -32.34936552 54.07358955 -33.0625 47.5625 C-36.01508282 20.33790999 -36.01508282 20.33790999 -30.1875 9.6875 C-25.24861246 3.61972388 -20.28300484 1.33554013 -12.625 0.375 C-8.39344378 -0.02663923 -4.24856181 -0.15173435 0 0 Z " fill="#C4942F" transform="translate(209,209)"/>
<path d="M0 0 C4.75552018 5.31741161 5.68275966 10.03836349 5.60546875 17.015625 C5.59580078 18.93181641 5.59580078 18.93181641 5.5859375 20.88671875 C5.4346495 24.21153635 4.99609808 27.30744122 4.41796875 30.578125 C-7.08423298 30.64820385 -18.58638239 30.70122608 -30.08875561 30.73356152 C-35.43205086 30.74909525 -40.7751981 30.77010343 -46.1184082 30.80444336 C-51.29263537 30.83748215 -56.46672186 30.8550699 -61.64104652 30.86275673 C-63.59701052 30.8682216 -65.55296844 30.87888769 -67.50887108 30.89531517 C-97.16625692 31.13407846 -127.54163888 26.42334783 -151.58203125 7.578125 C-151.58203125 6.918125 -151.58203125 6.258125 -151.58203125 5.578125 C-103.05147479 -7.1423796 -103.05147479 -7.1423796 -84.14453125 -4.921875 C-72.97223774 -3.72854953 -61.66127532 -4.18285653 -50.47265625 -4.90625 C-49.75872208 -4.95218796 -49.0447879 -4.99812592 -48.30921936 -5.04545593 C-44.74491821 -5.27867924 -41.18251523 -5.52763564 -37.62084961 -5.7980957 C-8.77025401 -7.88240113 -8.77025401 -7.88240113 0 0 Z " fill="#C4942F" transform="translate(738.58203125,173.421875)"/>
<path d="M0 0 C-1.27355432 27.06302928 -15.77450022 52.92234202 -35.25 71.1875 C-51.18003316 84.57550659 -73.45541939 97.06026479 -95 96 C-95.60328125 94.92621094 -96.2065625 93.85242188 -96.828125 92.74609375 C-97.63540373 91.30988856 -98.44269613 89.87369106 -99.25 88.4375 C-99.64574219 87.73302734 -100.04148437 87.02855469 -100.44921875 86.30273438 C-100.84238281 85.60341797 -101.23554687 84.90410156 -101.640625 84.18359375 C-102.2274707 83.13727783 -102.2274707 83.13727783 -102.82617188 82.06982422 C-103.6027539 80.70046848 -104.39039586 79.33732066 -105.18945312 77.98095703 C-108 73.20129244 -108 73.20129244 -108 71 C-107.43192627 70.90501221 -106.86385254 70.81002441 -106.27856445 70.7121582 C-95.04299516 68.79848851 -84.38284147 66.8633914 -74 62 C-73.0615625 61.57074219 -72.123125 61.14148438 -71.15625 60.69921875 C-56.8124839 53.54748144 -46.56184136 41.81631368 -41.25 26.75 C-40.90453125 25.65171875 -40.5590625 24.5534375 -40.203125 23.421875 C-36.55899511 13.05740166 -36.55899511 13.05740166 -33.21679688 10.79052734 C-31.04891051 9.81126564 -28.88988622 9.03916976 -26.625 8.3125 C-25.83150146 8.03269287 -25.03800293 7.75288574 -24.22045898 7.46459961 C-22.60178103 6.89615561 -20.97891486 6.33949528 -19.35205078 5.79492188 C-17.15463118 5.05226065 -14.98091677 4.26585273 -12.80859375 3.453125 C-3.50649579 0 -3.50649579 0 0 0 Z " fill="#C4942F" transform="translate(869,699)"/>
<path d="M0 0 C1.13424867 5.12571291 1.2206548 10.01921808 1.25 15.25 C1.270625 16.15363281 1.29125 17.05726563 1.3125 17.98828125 C1.36053034 26.33355265 -0.00904051 33.82749628 -6 40 C-9.51724138 43 -9.51724138 43 -12 43 C-13.85926689 39.49865963 -15.71043086 35.99317026 -17.55419922 32.48364258 C-18.18251986 31.29041724 -18.81304027 30.09834755 -19.44580078 28.9074707 C-20.35506795 27.19527922 -21.25577827 25.47855221 -22.15625 23.76171875 C-22.70087891 22.73006592 -23.24550781 21.69841309 -23.80664062 20.63549805 C-25 18 -25 18 -25 15 C-22.69850746 13.2319263 -20.44514026 11.66939013 -18 10.125 C-17.31462158 9.68172363 -16.62924316 9.23844727 -15.9230957 8.78173828 C-14.56591019 7.90633191 -13.20569608 7.03560052 -11.84228516 6.16992188 C-10.31878337 5.20243969 -8.80459308 4.22031179 -7.29296875 3.234375 C-2.28340517 0 -2.28340517 0 0 0 Z " fill="#C4942F" transform="translate(750,687)"/>
<path d="M0 0 C-1.42885808 3.80174433 -3.1704854 7.2732575 -5.15234375 10.81640625 C-5.76400391 11.91017578 -6.37566406 13.00394531 -7.00585938 14.13085938 C-7.64330078 15.26330078 -8.28074219 16.39574219 -8.9375 17.5625 C-9.57107422 18.69880859 -10.20464844 19.83511719 -10.85742188 21.00585938 C-16.03341897 30.23121697 -16.03341897 30.23121697 -19 34 C-21.48396784 33.66432867 -23.46224431 33.35939782 -25.56640625 31.953125 C-27.75801356 28.96728397 -28.07294062 25.6409231 -28.625 22.0625 C-28.74979736 21.308479 -28.87459473 20.55445801 -29.00317383 19.77758789 C-29.99989846 13.54392524 -30.64775679 7.30393883 -31 1 C-20.63496744 0.08012389 -10.39669641 -0.1132812 0 0 Z " fill="#C4942F" transform="translate(245,753)"/>
<path d="M0 0 C0.66 0.66 1.32 1.32 2 2 C1.01 2.495 1.01 2.495 0 3 C0 2.01 0 1.02 0 0 Z " fill="#C4942F" transform="translate(777,801)"/>
</svg>
