<?xml version="1.0" encoding="UTF-8" standalone="no"?>
<svg
   id="Layer_1"
   data-name="Layer 1"
   viewBox="0 0 24 24"
   width="512"
   height="512"
   version="1.1"
   sodipodi:docname="exchange-alt.svg"
   inkscape:version="1.3 (0e150ed, 2023-07-21)"
   xmlns:inkscape="http://www.inkscape.org/namespaces/inkscape"
   xmlns:sodipodi="http://sodipodi.sourceforge.net/DTD/sodipodi-0.dtd"
   xmlns="http://www.w3.org/2000/svg"
   xmlns:svg="http://www.w3.org/2000/svg">
  <defs
     id="defs2" />
  <sodipodi:namedview
     id="namedview2"
     pagecolor="#ffffff"
     bordercolor="#000000"
     borderopacity="0.25"
     inkscape:showpageshadow="2"
     inkscape:pageopacity="0.0"
     inkscape:pagecheckerboard="0"
     inkscape:deskcolor="#d1d1d1"
     inkscape:zoom="0.4609375"
     inkscape:cx="254.91525"
     inkscape:cy="256"
     inkscape:window-width="1312"
     inkscape:window-height="449"
     inkscape:window-x="0"
     inkscape:window-y="25"
     inkscape:window-maximized="0"
     inkscape:current-layer="Layer_1" />
  <path
     d="M.5,8H17v3.718c0,.524,.303,.977,.79,1.181,.163,.067,.334,.101,.504,.101,.333,0,.659-.128,.901-.368l4.424-4.224c.246-.242,.38-.564,.38-.907s-.135-.665-.386-.913l-4.412-4.212c-.373-.37-.929-.475-1.412-.273-.487,.204-.79,.656-.79,1.181v3.718H.5c-.276,0-.5,.224-.5,.5s.224,.5,.5,.5ZM18,3.282c0-.166,.123-.235,.175-.258,.025-.01,.068-.024,.12-.024,.062,0,.138,.021,.21,.092l4.413,4.212c.053,.053,.083,.123,.083,.196s-.029,.144-.077,.19l-4.425,4.224c-.125,.124-.267,.085-.323,.062-.053-.022-.175-.092-.175-.258V3.282Z"
     id="path1"
     style="fill:#a0892c" />
  <path
     d="M23.5,16H7v-3.718c0-.524-.303-.977-.79-1.181-.484-.2-1.039-.095-1.405,.268L.38,15.593c-.246,.242-.38,.564-.38,.907s.135,.665,.386,.913l4.412,4.212c.248,.245,.575,.374,.909,.374,.169,0,.34-.033,.502-.101,.487-.204,.79-.656,.79-1.181v-3.718H23.5c.276,0,.5-.224,.5-.5s-.224-.5-.5-.5ZM6,20.718c0,.166-.123,.235-.175,.258-.055,.021-.198,.062-.33-.067L1.083,16.696c-.053-.053-.083-.123-.083-.196s.029-.144,.077-.19l4.425-4.224c.068-.066,.14-.086,.201-.086,.052,0,.097,.014,.122,.024,.053,.022,.175,.092,.175,.258v8.436Z"
     id="path2"
     style="fill:#a0892c" />
</svg>
