<?xml version="1.0" encoding="UTF-8" standalone="no"?>
<svg
   id="Layer_1"
   data-name="Layer 1"
   viewBox="0 0 24 24"
   width="512"
   height="512"
   version="1.1"
   sodipodi:docname="memo-circle-check.svg"
   inkscape:version="1.3 (0e150ed, 2023-07-21)"
   xmlns:inkscape="http://www.inkscape.org/namespaces/inkscape"
   xmlns:sodipodi="http://sodipodi.sourceforge.net/DTD/sodipodi-0.dtd"
   xmlns="http://www.w3.org/2000/svg"
   xmlns:svg="http://www.w3.org/2000/svg">
  <defs
     id="defs1" />
  <sodipodi:namedview
     id="namedview1"
     pagecolor="#ffffff"
     bordercolor="#000000"
     borderopacity="0.25"
     inkscape:showpageshadow="2"
     inkscape:pageopacity="0.0"
     inkscape:pagecheckerboard="0"
     inkscape:deskcolor="#d1d1d1"
     inkscape:zoom="0.4609375"
     inkscape:cx="254.91525"
     inkscape:cy="256"
     inkscape:window-width="1312"
     inkscape:window-height="449"
     inkscape:window-x="0"
     inkscape:window-y="25"
     inkscape:window-maximized="0"
     inkscape:current-layer="Layer_1" />
  <path
     d="m11,23.5c0,.276-.224.5-.5.5h-6c-2.481,0-4.5-2.019-4.5-4.5V4.5C0,2.019,2.019,0,4.5,0h9c2.481,0,4.5,2.019,4.5,4.5v4c0,.276-.224.5-.5.5s-.5-.224-.5-.5v-4c0-1.93-1.57-3.5-3.5-3.5H4.5c-1.93,0-3.5,1.57-3.5,3.5v15c0,1.93,1.57,3.5,3.5,3.5h6c.276,0,.5.224.5.5Zm3-18c0-.276-.224-.5-.5-.5H4.5c-.276,0-.5.224-.5.5s.224.5.5.5h9c.276,0,.5-.224.5-.5Zm-2,5c0-.276-.224-.5-.5-.5h-7c-.276,0-.5.224-.5.5s.224.5.5.5h7c.276,0,.5-.224.5-.5Zm-7.5,4.5c-.276,0-.5.224-.5.5s.224.5.5.5h4c.276,0,.5-.224.5-.5s-.224-.5-.5-.5h-4Zm19.5,2.5c0,3.584-2.916,6.5-6.5,6.5s-6.5-2.916-6.5-6.5,2.916-6.5,6.5-6.5,6.5,2.916,6.5,6.5Zm-1,0c0-3.032-2.468-5.5-5.5-5.5s-5.5,2.468-5.5,5.5,2.468,5.5,5.5,5.5,5.5-2.468,5.5-5.5Zm-3.347-.88l-2.218,2.129c-.336.332-.886.332-1.224.002l-1.131-1.108c-.196-.191-.513-.19-.707.008-.193.197-.189.514.008.707l1.131,1.108c.362.354.838.531,1.312.531s.95-.178,1.31-.532l2.213-2.124c.199-.19.205-.508.014-.707-.19-.198-.507-.205-.707-.014Z"
     id="path1"
     style="fill:#a0892c" />
</svg>
